<?xml version="1.0" encoding="utf-8"?>
<!-- Generator: Adobe Illustrator 22.0.1, SVG Export Plug-In . SVG Version: 6.00 Build 0)  -->
<svg version="1.1" id="Layer_1" xmlns="http://www.w3.org/2000/svg" xmlns:xlink="http://www.w3.org/1999/xlink" x="0px" y="0px"
	 viewBox="0 0 20 20" enable-background="new 0 0 20 20" xml:space="preserve">
<circle fill="#FF7A59" cx="10" cy="10" r="10"/>
<path id="Type-something-Copy-3" fill="#FFFFFF" d="M14.3,8c0,0.1-0.1,0.3-0.2,0.4l-4.8,4.8c-0.1,0.1-0.2,0.2-0.4,0.2
	s-0.3-0.1-0.4-0.2l-2.8-2.8c-0.1-0.1-0.2-0.2-0.2-0.4s0.1-0.3,0.2-0.4l0.8-0.8C6.7,8.8,6.8,8.7,7,8.7s0.3,0.1,0.4,0.2L9,10.5
	l3.7-3.7c0.1-0.1,0.2-0.2,0.4-0.2c0.1,0,0.3,0.1,0.4,0.2l0.8,0.8C14.3,7.7,14.3,7.8,14.3,8z"/>
</svg>
